<?xml version="1.0" standalone="no"?>
<!DOCTYPE svg PUBLIC "-//W3C//DTD SVG 20010904//EN"
 "http://www.w3.org/TR/2001/REC-SVG-20010904/DTD/svg10.dtd">
<svg version="1.0" xmlns="http://www.w3.org/2000/svg"
 width="700.000000pt" height="700.000000pt" viewBox="0 0 700.000000 700.000000"
 preserveAspectRatio="xMidYMid meet">
<metadata>
Created by potrace 1.11, written by Peter Selinger 2001-2013
</metadata>
<g transform="translate(0.000000,700.000000) scale(0.100000,-0.100000)"
fill="#000000" stroke="none">
<path d="M380 5603 c-28 -11 -59 -46 -70 -79 -28 -82 150 -837 317 -1349 52
-159 180 -509 222 -609 11 -24 16 -48 12 -52 -19 -21 -159 -421 -231 -659 -81
-267 -195 -698 -224 -847 -2 -12 -20 -95 -40 -183 -19 -88 -37 -177 -40 -197
-3 -21 -10 -57 -16 -81 -20 -93 18 -160 95 -168 38 -4 85 15 106 44 9 12 37
87 62 167 50 159 55 176 193 655 119 412 230 775 265 866 10 24 15 17 85 -119
41 -80 83 -157 93 -171 9 -14 22 -37 29 -51 6 -14 18 -34 24 -45 261 -405 363
-540 568 -745 115 -115 158 -153 275 -240 242 -181 461 -281 737 -338 137 -29
212 -32 365 -17 118 11 135 14 245 41 l108 26 77 -20 c43 -11 98 -24 123 -28
25 -4 47 -8 50 -9 18 -5 165 -17 210 -17 358 -4 799 184 1120 476 356 324 608
663 844 1133 59 116 65 126 74 103 51 -141 134 -397 172 -535 12 -44 31 -109
41 -145 67 -238 153 -621 205 -914 11 -63 51 -111 99 -117 34 -5 82 11 103 34
19 21 45 91 36 100 -2 2 -6 26 -9 53 -3 27 -8 56 -10 64 -2 8 -7 38 -10 66 -3
28 -8 61 -10 75 -3 13 -7 35 -10 49 -32 171 -58 302 -75 380 -12 52 -24 106
-26 120 -3 14 -7 33 -10 42 -3 9 -7 25 -9 35 -2 10 -16 63 -30 118 -15 55 -28
107 -30 115 -2 8 -13 49 -25 90 -12 41 -25 89 -30 105 -36 130 -124 394 -201
601 l-23 61 42 109 c96 252 223 661 268 862 2 13 11 49 20 80 12 47 53 226 70
307 10 50 24 123 28 149 3 16 10 52 15 80 6 28 13 67 15 86 3 19 8 46 10 60
15 83 36 246 36 278 -1 79 -89 135 -162 101 -40 -18 -65 -69 -87 -179 -52
-258 -81 -390 -141 -630 -68 -276 -137 -518 -215 -758 l-56 -173 -74 148 c-79
159 -118 229 -198 363 -46 78 -164 258 -177 270 -3 3 -32 41 -65 85 -236 314
-530 570 -821 713 -55 26 -108 51 -119 55 -11 3 -51 17 -90 31 -60 22 -176 51
-280 70 -108 20 -336 15 -466 -9 -66 -13 -90 -18 -167 -37 l-84 -21 -71 21
c-40 11 -90 24 -112 28 -22 3 -49 8 -60 10 -127 25 -364 25 -493 1 -297 -57
-557 -180 -810 -383 -118 -95 -290 -267 -372 -374 -19 -25 -37 -47 -40 -50
-15 -13 -104 -136 -167 -230 -95 -141 -212 -346 -293 -512 l-67 -137 -41 102
c-161 397 -333 965 -422 1387 -16 76 -34 148 -39 159 -24 43 -96 71 -141 54z
m2768 -247 c3 -3 1 -6 -5 -6 -16 0 -180 -129 -248 -196 -58 -56 -215 -237
-215 -247 0 -3 -18 -32 -40 -65 -178 -266 -316 -665 -347 -997 -3 -33 -8 -85
-12 -116 -11 -81 -5 -387 8 -504 75 -636 348 -1175 759 -1496 48 -37 98 -76
111 -86 l24 -19 -44 -3 c-108 -9 -165 -3 -285 30 -186 51 -371 150 -558 299
-87 69 -264 242 -353 345 -52 60 -227 288 -258 336 -5 9 -37 56 -69 105 -101
152 -218 360 -328 580 l-106 210 72 170 c174 405 367 736 576 987 68 81 228
240 310 308 120 100 366 244 475 279 22 7 45 16 50 20 17 12 151 50 242 68 82
17 223 15 241 -2z m972 9 c575 -72 1124 -564 1560 -1398 83 -160 220 -460 220
-482 0 -32 -78 -212 -191 -440 -99 -201 -168 -319 -290 -500 -242 -359 -460
-564 -759 -716 -96 -48 -275 -113 -341 -123 -20 -3 -42 -8 -50 -10 -40 -14
-224 -30 -239 -21 -6 4 11 24 41 48 329 262 566 677 664 1162 41 203 53 341
49 570 -2 116 -5 224 -8 240 -2 17 -6 53 -10 80 -4 28 -8 64 -10 80 -3 17 -14
75 -26 130 -121 560 -372 992 -746 1285 -56 44 -108 80 -115 80 -7 0 -10 3 -6
6 7 7 151 21 182 18 11 -1 45 -5 75 -9z m-443 -190 c390 -237 677 -683 787
-1227 9 -42 18 -92 21 -110 2 -18 9 -59 13 -90 17 -109 20 -347 8 -508 -48
-642 -361 -1200 -809 -1445 -80 -44 -81 -44 -225 27 -129 63 -237 140 -360
258 -171 164 -303 363 -406 612 -79 192 -147 475 -164 683 -18 240 3 568 49
740 6 22 13 50 15 61 2 12 22 75 45 140 90 263 216 472 389 644 120 121 202
181 347 257 l103 53 56 -25 c31 -14 90 -45 131 -70z"/>
<path d="M3255 4509 c-169 -26 -313 -147 -409 -343 -37 -76 -75 -180 -78 -213
0 -5 -7 -28 -14 -53 -7 -25 -15 -63 -18 -85 -2 -22 -8 -62 -12 -90 -12 -78 -9
-381 5 -475 63 -429 238 -700 495 -764 242 -61 457 70 621 379 21 39 39 71 40
73 4 5 25 -131 45 -286 6 -45 14 -92 19 -105 40 -103 192 -93 219 15 6 23 9
44 8 47 -2 3 -7 38 -10 76 -4 39 -9 77 -11 85 -2 8 -7 46 -10 85 -4 38 -8 72
-10 75 -2 3 -6 28 -9 55 -7 62 -14 114 -20 140 -2 11 -7 40 -11 65 -4 25 -9
54 -12 65 -29 141 -32 179 -18 229 8 28 16 62 19 76 2 14 16 81 30 150 30 147
73 405 82 481 3 30 9 70 13 89 4 19 9 63 10 98 2 60 1 64 -32 97 -32 32 -40
35 -92 35 -51 0 -60 -3 -91 -34 -19 -19 -34 -42 -35 -52 0 -11 -2 -28 -5 -39
-2 -11 -6 -40 -9 -65 -9 -62 -34 -229 -42 -265 -3 -16 -6 -40 -6 -52 -1 -37
-12 -27 -37 35 -95 234 -240 408 -382 458 -49 17 -162 23 -233 13z m150 -286
c41 -34 95 -98 133 -158 14 -23 103 -204 125 -255 21 -50 84 -239 102 -310 13
-49 13 -69 4 -103 -15 -57 -58 -185 -74 -222 -7 -16 -21 -49 -30 -72 -75 -189
-214 -365 -306 -388 -37 -9 -104 26 -156 81 -80 87 -162 287 -179 439 -3 28
-9 54 -12 59 -9 16 -11 347 -1 406 5 30 11 70 14 89 33 207 123 382 234 457
48 32 88 26 146 -23z"/>
</g>
</svg>
