<?xml version="1.0" encoding="UTF-8"?>
<!DOCTYPE svg PUBLIC "-//W3C//DTD SVG 1.1//EN" "http://www.w3.org/Graphics/SVG/1.1/DTD/svg11.dtd">
<svg version="1.1" xmlns="http://www.w3.org/2000/svg" xmlns:xlink="http://www.w3.org/1999/xlink" x="0" y="0" width="500" height="350" viewBox="0, 0, 500, 350">
  <defs>
    <filter id="Shadow_1">
      <feGaussianBlur in="SourceAlpha" stdDeviation="0"/>
      <feOffset dx="6.6" dy="3.3" result="offsetblur"/>
      <feFlood flood-color="#A0D3CC"/>
      <feComposite in2="offsetblur" operator="in"/>
    </filter>
  </defs>
  <g id="Layer_2">
    <g>
      <path d="M213.721,27.253 C226.238,27.495 239.092,28.837 250.937,33.17 C263.212,29.121 276.062,27.545 288.935,27.25 L289.178,27.272 L289.423,27.26 L289.719,27.281 L289.731,27.281 L289.759,27.284 C354.904,31.025 396.842,87.031 423.884,140.596 C426.999,147.016 425.509,143.863 428.361,150.051 C441.781,112.303 450.859,73.2 458.597,33.948 C458.81,33.077 458.691,33.388 458.857,32.984 C458.907,32.765 458.866,32.874 458.99,32.66 C459.596,31.187 459.197,31.913 460.235,30.511 C460.533,29.996 460.36,30.165 460.668,29.927 C461.111,29.328 460.765,29.739 461.943,28.94 C463.058,28.077 462.565,28.248 463.239,28.061 C463.828,27.661 463.371,27.931 464.772,27.634 C466.189,27.24 465.623,27.26 466.434,27.282 C466.779,27.209 466.535,27.244 467.172,27.301 L467.744,27.316 L467.995,27.374 L468.252,27.397 C469.123,27.61 468.812,27.491 469.216,27.657 C469.435,27.708 469.326,27.666 469.54,27.79 C471.013,28.396 470.287,27.998 471.689,29.036 C472.203,29.334 472.034,29.16 472.273,29.468 C472.871,29.911 472.46,29.565 473.26,30.744 C474.122,31.858 473.951,31.365 474.139,32.039 C474.538,32.628 474.268,32.171 474.565,33.573 C474.96,34.99 474.939,34.424 474.918,35.234 C474.991,35.579 474.955,35.336 474.898,35.973 L474.883,36.544 C469.068,84.439 456.38,131.081 439.392,176.137 C456.774,220.58 468.619,267.162 474.884,314.461 L474.901,315.121 C474.948,315.834 474.998,315.578 474.921,315.903 C474.939,316.61 474.948,316.058 474.541,317.516 C474.198,318.968 474.489,318.523 474.112,319.052 C473.941,319.667 474.102,319.17 473.203,320.33 C472.346,321.533 472.768,321.209 472.224,321.593 C472.043,321.827 472.178,321.682 471.738,321.937 C470.174,323.041 470.926,322.67 469.561,323.196 C469.296,323.35 469.44,323.292 469.125,323.364 C468.631,323.555 468.975,323.436 468.069,323.635 L467.902,323.647 L467.739,323.684 L467.078,323.701 C466.366,323.748 466.622,323.798 466.297,323.721 C465.589,323.74 466.142,323.748 464.683,323.341 C463.231,322.999 463.676,323.289 463.147,322.913 C462.532,322.741 463.03,322.902 461.869,322.003 C460.666,321.146 460.991,321.568 460.607,321.025 C460.372,320.843 460.518,320.979 460.263,320.538 C459.159,318.974 459.53,319.726 459.003,318.361 C458.85,318.096 458.908,318.24 458.835,317.926 C458.645,317.431 458.764,317.775 458.564,316.869 C452.261,277.578 441.423,239.269 428.414,201.729 C426.353,206.178 427.558,203.627 424.757,209.362 C411.216,237.736 392.977,263.261 370.348,285.009 L366.995,288.217 C343.676,309.861 317.327,322.141 287.96,323.738 L287.62,323.722 L287.28,323.747 C276.073,323.412 264.88,321.716 254.202,318.258 C242.004,322.184 229.23,323.583 216.468,323.75 L216.113,323.714 L215.755,323.719 L215.603,323.703 L213.571,323.75 C211.55,323.566 212.423,323.81 210.912,323.192 C149.105,313.778 109.666,260.968 82.264,209.119 L77.791,200.204 L77.092,202.228 C71.495,218.75 66.556,235.047 59.761,258.796 C59.69,259.046 53.815,279.673 52.184,285.318 C49.382,295.018 47.09,302.682 44.881,309.657 C43.94,312.63 43.022,315.446 42.12,318.129 C41.779,318.995 41.952,318.672 41.681,319.139 C41.535,319.494 41.631,319.319 41.38,319.658 C40.878,320.524 41.169,320.149 40.533,320.802 C40.066,321.433 40.328,321.197 39.795,321.559 C39.075,322.298 39.52,321.95 38.394,322.509 C37.39,323.191 37.879,323.016 37,323.202 C36.179,323.61 36.681,323.44 35.444,323.532 C34.127,323.811 34.763,323.782 33.54,323.673 C33.205,323.698 33.378,323.709 33.019,323.627 L32.748,323.603 C31.882,323.391 32.188,323.509 31.798,323.349 L31.671,323.32 C30.805,322.979 31.129,323.152 30.662,322.881 C30.306,322.735 30.482,322.831 30.142,322.58 C29.276,322.078 29.651,322.369 28.998,321.733 C28.368,321.266 28.603,321.528 28.241,320.995 C27.503,320.275 27.85,320.72 27.291,319.594 C26.61,318.59 26.785,319.078 26.598,318.2 C26.19,317.378 26.36,317.881 26.268,316.644 C25.989,315.326 26.018,315.962 26.127,314.739 C26.102,314.404 26.092,314.578 26.173,314.219 L26.198,313.948 C35.054,265.787 47.927,218.479 65.507,172.781 C47.131,129.245 34.483,83.492 26.192,37.021 L26.19,37.011 L26.19,37.01 L26.165,36.869 L26.115,36.113 C26.049,35.33 25.996,35.597 26.06,35.299 C26.02,34.691 26.047,35.233 26.406,33.707 C26.735,32.195 26.443,32.638 26.772,32.158 C26.904,31.597 26.774,32.107 27.664,30.857 C28.528,29.597 28.109,29.915 28.58,29.57 C28.833,29.214 28.599,29.532 29.535,28.871 C30.468,28.187 30.096,28.345 30.525,28.171 C30.781,27.991 30.555,28.144 31.285,27.863 C31.997,27.574 31.729,27.643 32.061,27.564 C32.22,27.503 32.09,27.55 32.463,27.468 L32.789,27.39 L32.833,27.386 L32.931,27.364 L33.69,27.314 C34.47,27.248 34.204,27.196 34.501,27.26 C35.11,27.22 34.567,27.246 36.095,27.607 C37.605,27.935 37.163,27.643 37.642,27.971 C38.203,28.104 37.693,27.974 38.944,28.864 C40.203,29.728 39.885,29.309 40.23,29.779 C40.586,30.033 40.269,29.799 40.929,30.733 C41.614,31.668 41.455,31.296 41.629,31.725 C41.809,31.98 41.656,31.755 41.936,32.482 C42.226,33.197 42.157,32.927 42.237,33.261 C42.297,33.418 42.25,33.29 42.332,33.658 L42.411,33.989 C49.532,72.83 62.234,110.315 76.533,147.028 L80.156,139.406 C95.745,107.601 113.591,81.731 134.005,62.783 C157.324,41.139 183.673,28.859 213.04,27.262 L213.264,27.273 L213.488,27.25 L213.72,27.253 L213.721,27.253 z M214.009,43.778 C178.051,49.1 149.963,70.862 127.839,98.733 C110.614,121.201 98.319,146.865 87.832,173.023 C97.71,193.574 93.17,184.621 101.206,200.004 C125.873,244.193 162.621,300.642 217.929,307.097 C224.726,306.676 221.32,306.978 228.146,306.186 C215.109,298.224 204.295,287.195 195.16,275.058 C175.279,247.928 164.373,211.828 164.093,174.567 C163.812,137.066 174.301,101.15 194.215,74.4 C196.407,71.536 195.584,72.533 196.585,71.331 C204.57,60.7 214.748,52.128 225.775,44.843 C221.885,44.191 217.945,43.942 214.009,43.778 z M288.672,43.759 C284.15,43.742 279.655,44.199 275.17,44.72 C287.563,52.459 297.953,62.789 306.896,74.262 C327.42,101.297 339.153,137.652 340.205,175.269 C341.267,213.22 331.395,249.588 311.777,276.598 C304.647,286.807 295.547,295.229 285.688,302.718 C288.928,302.982 287.241,302.876 290.75,303.021 C318.119,301.481 339.375,289.777 359.75,272.258 C379.44,252.867 393.735,228.878 406.028,204.332 C413.302,189.025 409.02,198.306 418.541,176.338 C409.403,155.564 413.588,164.515 406.27,149.355 C382.376,101.763 345.973,50.053 288.672,43.759 z M249.598,51.261 C233.55,57.468 220.427,68.46 209.537,81.553 L207.98,83.59 C190.66,106.883 181.608,138.732 182.277,172.232 C182.944,205.613 193.218,237.816 211.239,261.647 C223.293,278.054 239.817,289.925 258.688,297.146 C273.203,290.308 285.163,279.458 294.803,266.771 C312.315,243.074 321.602,210.673 321.16,176.602 C320.721,142.662 310.655,109.929 292.783,85.718 C281.592,70.92 267.076,58.064 249.598,51.261 z M241.094,103.897 L242.111,103.983 C242.948,103.768 242.306,103.902 244.077,103.984 C254.051,105.46 262.279,112.465 269.148,123.74 C272.869,129.612 275.413,136.082 277.986,142.503 C279.938,132.102 281.304,121.605 282.697,111.119 C283.455,106.555 287.109,103.843 291.631,103.953 C292.288,103.769 291.71,103.918 293.422,103.96 C297.943,104.527 301.148,108.652 300.581,113.172 C297.492,135.613 294.599,158.262 288.56,180.153 C292.698,199.204 295.149,218.564 297.216,237.933 L297.218,237.95 L297.218,237.953 L297.228,238.044 L297.227,238.825 C297.234,239.632 297.31,239.367 297.225,239.652 C297.224,240.234 297.231,239.695 296.765,241.202 C296.319,242.705 296.646,242.286 296.293,242.727 C296.128,243.26 296.289,242.76 295.308,243.956 C294.342,245.161 294.797,244.901 294.311,245.172 C293.953,245.609 294.295,245.201 292.916,245.948 C291.538,246.716 292.064,246.597 291.495,246.719 C291.233,246.861 291.477,246.732 290.684,246.892 L289.922,247.055 L289.875,247.055 L289.829,247.064 L289.043,247.063 C288.24,247.07 288.504,247.145 288.22,247.061 C287.637,247.06 288.177,247.067 286.666,246.6 C285.167,246.155 285.585,246.482 285.145,246.129 C284.612,245.965 285.112,246.125 283.916,245.144 C282.711,244.179 282.971,244.634 282.7,244.147 C282.264,243.789 282.671,244.131 281.925,242.754 C281.156,241.374 281.275,241.9 281.153,241.331 C281.012,241.07 281.14,241.313 280.981,240.524 L280.818,239.758 C278.978,224.622 280.148,233.372 277.075,213.541 C274.94,218.836 271.949,223.715 268.835,228.477 C262.539,237.512 253.656,245.6 242.285,246.928 C241.824,247.099 242.158,246.997 241.244,247.049 L241.015,247.076 L240.835,247.073 L240.42,247.097 L239.942,247.057 C239.288,247.046 239.534,247.108 239.184,246.994 L239.18,246.994 L238.477,247.076 L237.446,247.058 L236.771,247.097 C222.693,246.491 211.588,237.11 204.297,221.915 C198.154,209.111 194.839,192.348 194.754,175.09 C194.669,157.711 197.86,141.021 204.029,128.364 C210.089,115.944 220.888,104.791 235.464,104.004 C236.058,103.842 235.677,103.911 236.624,103.941 L237.444,103.897 L238.86,104.017 L241.094,103.897 z M237.603,120.91 C230.291,122.469 225.678,129.412 222.51,135.593 C217.55,145.77 214.83,159.998 214.903,175.009 C215.244,191.26 219.12,225.462 239.054,230.312 C239.083,230.308 239.113,230.303 239.142,230.298 C240.487,229.747 241.915,229.368 243.176,228.646 C255.755,221.44 262.946,200.522 267.247,187.67 C268.961,182.16 268.127,184.96 269.741,179.269 C268.562,174.299 266.997,169.43 265.459,164.562 C260.403,150.96 254.243,130.926 241.227,122.604 C240.104,121.886 238.811,121.475 237.603,120.91 z" filter="url(#Shadow_1)" fill="rgba(0,0,0,1)"/>
      <path d="M466.7,35.5 C454.915,127.863 405.544,305.049 290.883,311.283 M289.018,35.5 C403.321,41.124 455.404,226.537 466.7,315.5 M290.883,311.283 C139.907,307.033 130.869,37.097 289.018,35.5 M213.488,35.5 C89.975,54.74 63.686,228.099 34.3,315.5 M218.783,315.5 C115.977,306.112 50.168,120.651 34.3,35.5 M213.488,35.5 C364.612,35.5 377.292,315.5 216.468,315.5 M287.512,315.5 C402.173,309.266 448.92,128.303 466.7,35.5 M289.018,35.5 C399.471,45.082 451.698,226.385 466.7,315.5 M287.512,315.5 C136.536,311.249 130.869,37.097 289.018,35.5 M213.488,35.5 C98.827,41.735 52.08,222.697 34.3,315.5 M216.468,315.5 C106.015,305.918 49.302,124.615 34.3,35.5 M213.488,35.5 C364.464,39.75 371.637,313.903 213.488,315.5 M240.332,238.854 C274.303,236.033 287.128,154.142 292.395,112.146 M242.87,112.146 C272.717,116.561 284.964,197.793 289.018,238.854 M240.775,238.854 C196.045,236.931 194.366,112.868 241.221,112.146 M237.795,238.854 C271.765,236.033 285.615,154.142 290.883,112.146 M236.376,112.146 C269.1,116.482 284.574,198.527 289.018,238.854 M237.125,238.854 C192.395,236.931 190.716,112.868 237.572,112.146" fill-opacity="0" stroke="#E03B3B" stroke-width="16.5" stroke-linecap="round" stroke-linejoin="round"/>
    </g>
  </g>
</svg>
